HIERARCHY
ROOT hip
{
  OFFSET 1.07303 95.7655 0.46816
  CHANNELS 6 Xposition Yposition Zposition Zrotation Xrotation Yrotation
  JOINT abdomen
  {
    OFFSET -0.835213 7.19187 -0.000149727
    CHANNELS 6 Xposition Yposition Zposition Zrotation Xrotation Yrotation
    JOINT chest
    {
      OFFSET 0.000581741 16.5492 -0.000204086
      CHANNELS 6 Xposition Yposition Zposition Zrotation Xrotation Yrotation
      JOINT neck
      {
        OFFSET 0 34.2154 0.000256062
        CHANNELS 6 Xposition Yposition Zposition Zrotation Xrotation Yrotation
        JOINT head
        {
          OFFSET 0 6.29235 0
          CHANNELS 6 Xposition Yposition Zposition Zrotation Xrotation Yrotation
          End Site
          {
            OFFSET 0 0 0
          }
        }
      }
      JOINT lCollar
      {
        OFFSET 4.06394 26.6115 -1.12344
        CHANNELS 6 Xposition Yposition Zposition Zrotation Xrotation Yrotation
        JOINT lShldr
        {
          OFFSET 14.1772 -1.52588e-05 0
          CHANNELS 6 Xposition Yposition Zposition Zrotation Xrotation Yrotation
          JOINT lForeArm
          {
            OFFSET 26.1234 0 0
            CHANNELS 6 Xposition Yposition Zposition Zrotation Xrotation Yrotation
            JOINT lHand
            {
              OFFSET 27.7188 0 0
              CHANNELS 6 Xposition Yposition Zposition Zrotation Xrotation Yrotation
              JOINT lThumb1
              {
                OFFSET 2.29793 -0.468456 1.83133
                CHANNELS 6 Xposition Yposition Zposition Zrotation Xrotation Yrotation
                JOINT lThumb2
                {
                  OFFSET 5.29526 0 0
                  CHANNELS 6 Xposition Yposition Zposition Zrotation Xrotation Yrotation
                  JOINT lThumb3
                  {
                    OFFSET 3.01811 0 0
                    CHANNELS 6 Xposition Yposition Zposition Zrotation Xrotation Yrotation
                    End Site
                    {
                      OFFSET 0 0 0
                    }
                  }
                }
              }
              JOINT lIndex1
              {
                OFFSET 9.37931 0.299057 2.59235
                CHANNELS 6 Xposition Yposition Zposition Zrotation Xrotation Yrotation
                JOINT lIndex2
                {
                  OFFSET 4.34608 0 0
                  CHANNELS 6 Xposition Yposition Zposition Zrotation Xrotation Yrotation
                  JOINT lIndex3
                  {
                    OFFSET 2.1666 0 0
                    CHANNELS 6 Xposition Yposition Zposition Zrotation Xrotation Yrotation
                    End Site
                    {
                      OFFSET 0 0 0
                    }
                  }
                }
              }
              JOINT lMid1
              {
                OFFSET 9.47694 0.837639 0.294667
                CHANNELS 6 Xposition Yposition Zposition Zrotation Xrotation Yrotation
                JOINT lMid2
                {
                  OFFSET 4.77204 0 0
                  CHANNELS 6 Xposition Yposition Zposition Zrotation Xrotation Yrotation
                  JOINT lMid3
                  {
                    OFFSET 2.87217 -1.33514e-05 0
                    CHANNELS 6 Xposition Yposition Zposition Zrotation Xrotation Yrotation
                    End Site
                    {
                      OFFSET 0 0 0
                    }
                  }
                }
              }
              JOINT lRing1
              {
                OFFSET 8.65864 1.01763 -1.70161
                CHANNELS 6 Xposition Yposition Zposition Zrotation Xrotation Yrotation
                JOINT lRing2
                {
                  OFFSET 4.5461 0 0
                  CHANNELS 6 Xposition Yposition Zposition Zrotation Xrotation Yrotation
                  JOINT lRing3
                  {
                    OFFSET 2.50603 0 0
                    CHANNELS 6 Xposition Yposition Zposition Zrotation Xrotation Yrotation
                    End Site
                    {
                      OFFSET 0 0 0
                    }
                  }
                }
              }
              JOINT lPinky1
              {
                OFFSET 7.69005 0.661793 -3.9096
                CHANNELS 6 Xposition Yposition Zposition Zrotation Xrotation Yrotation
                JOINT lPinky2
                {
                  OFFSET 3.21192 0 0
                  CHANNELS 6 Xposition Yposition Zposition Zrotation Xrotation Yrotation
                  JOINT lPinky3
                  {
                    OFFSET 1.92397 0 0
                    CHANNELS 6 Xposition Yposition Zposition Zrotation Xrotation Yrotation
                    End Site
                    {
                      OFFSET 0 0 0
                    }
                  }
                }
              }
            }
          }
        }
      }
      JOINT rCollar
      {
        OFFSET -4.06771 26.6109 -1.12341
        CHANNELS 6 Xposition Yposition Zposition Zrotation Xrotation Yrotation
        JOINT rShldr
        {
          OFFSET -14.1772 0 0
          CHANNELS 6 Xposition Yposition Zposition Zrotation Xrotation Yrotation
          JOINT rForeArm
          {
            OFFSET -26.1234 0 0
            CHANNELS 6 Xposition Yposition Zposition Zrotation Xrotation Yrotation
            JOINT rHand
            {
              OFFSET -27.7188 0 0
              CHANNELS 6 Xposition Yposition Zposition Zrotation Xrotation Yrotation
              JOINT rThumb1
              {
                OFFSET -2.29793 -0.468453 1.83133
                CHANNELS 6 Xposition Yposition Zposition Zrotation Xrotation Yrotation
                JOINT rThumb2
                {
                  OFFSET -5.29526 0 0
                  CHANNELS 6 Xposition Yposition Zposition Zrotation Xrotation Yrotation
                  JOINT rThumb3
                  {
                    OFFSET -3.01812 0 0
                    CHANNELS 6 Xposition Yposition Zposition Zrotation Xrotation Yrotation
                    End Site
                    {
                      OFFSET 0 0 0
                    }
                  }
                }
              }
              JOINT rIndex1
              {
                OFFSET -9.37931 0.299057 2.59235
                CHANNELS 6 Xposition Yposition Zposition Zrotation Xrotation Yrotation
                JOINT rIndex2
                {
                  OFFSET -4.34608 0 0
                  CHANNELS 6 Xposition Yposition Zposition Zrotation Xrotation Yrotation
                  JOINT rIndex3
                  {
                    OFFSET -2.16662 0 0
                    CHANNELS 6 Xposition Yposition Zposition Zrotation Xrotation Yrotation
                    End Site
                    {
                      OFFSET 0 0 0
                    }
                  }
                }
              }
              JOINT rMid1
              {
                OFFSET -9.47695 0.837639 0.294662
                CHANNELS 6 Xposition Yposition Zposition Zrotation Xrotation Yrotation
                JOINT rMid2
                {
                  OFFSET -4.77205 0 0
                  CHANNELS 6 Xposition Yposition Zposition Zrotation Xrotation Yrotation
                  JOINT rMid3
                  {
                    OFFSET -2.87217 -1.14441e-05 0
                    CHANNELS 6 Xposition Yposition Zposition Zrotation Xrotation Yrotation
                    End Site
                    {
                      OFFSET 0 0 0
                    }
                  }
                }
              }
              JOINT rRing1
              {
                OFFSET -8.65864 1.01763 -1.70162
                CHANNELS 6 Xposition Yposition Zposition Zrotation Xrotation Yrotation
                JOINT rRing2
                {
                  OFFSET -4.54611 0 0
                  CHANNELS 6 Xposition Yposition Zposition Zrotation Xrotation Yrotation
                  JOINT rRing3
                  {
                    OFFSET -2.50603 0 0
                    CHANNELS 6 Xposition Yposition Zposition Zrotation Xrotation Yrotation
                    End Site
                    {
                      OFFSET 0 0 0
                    }
                  }
                }
              }
              JOINT rPinky1
              {
                OFFSET -7.69006 0.661793 -3.90961
                CHANNELS 6 Xposition Yposition Zposition Zrotation Xrotation Yrotation
                JOINT rPinky2
                {
                  OFFSET -3.21191 0 0
                  CHANNELS 6 Xposition Yposition Zposition Zrotation Xrotation Yrotation
                  JOINT rPinky3
                  {
                    OFFSET -1.92397 0 0
                    CHANNELS 6 Xposition Yposition Zposition Zrotation Xrotation Yrotation
                    End Site
                    {
                      OFFSET 0 0 0
                    }
                  }
                }
              }
            }
          }
        }
      }
    }
  }
  JOINT lThigh
  {
    OFFSET 8.73786 -0.0029068 0.000545025
    CHANNELS 6 Xposition Yposition Zposition Zrotation Xrotation Yrotation
    JOINT lShin
    {
      OFFSET 0 -46.6676 0
      CHANNELS 6 Xposition Yposition Zposition Zrotation Xrotation Yrotation
      JOINT lFoot
      {
        OFFSET 0 -40.1476 -2.00272e-05
        CHANNELS 6 Xposition Yposition Zposition Zrotation Xrotation Yrotation
        JOINT lToes
        {
          OFFSET 0 -8.8846 14.2294
          CHANNELS 6 Xposition Yposition Zposition Zrotation Xrotation Yrotation
          End Site
          {
            OFFSET 0 0 0
          }
        }
      }
    }
  }
  JOINT rThigh
  {
    OFFSET -8.73786 0.00291443 -0.000536442
    CHANNELS 6 Xposition Yposition Zposition Zrotation Xrotation Yrotation
    JOINT rShin
    {
      OFFSET 0 -46.6676 0
      CHANNELS 6 Xposition Yposition Zposition Zrotation Xrotation Yrotation
      JOINT rFoot
      {
        OFFSET 0 -40.1476 -1.14441e-05
        CHANNELS 6 Xposition Yposition Zposition Zrotation Xrotation Yrotation
        JOINT rToes
        {
          OFFSET 0 -8.88459 14.2294
          CHANNELS 6 Xposition Yposition Zposition Zrotation Xrotation Yrotation
          End Site
          {
            OFFSET 0 0 0
          }
        }
      }
    }
  }
}
MOTION
Frames:	4
Frame Time:	0.0333333
1.07303 95.7655 0.46816 -2.74598 -2.3639 -9.9815 -0.835213 7.19187 -0.000149727 3.87543 -0.212041 -0.579587 0.000581741 16.5492 -0.000204086 0.292524 4.71074 -1.43558 -2.38419e-07 34.2154 0.000256062 -0.565566 37.3757 0.179858 4.44089e-16 6.29235 1.42109e-14 0.19505 -34.4197 -1.24506 4.06394 26.6115 -1.12344 -7.81719 -3.94645 -4.80544 14.1772 -1.52588e-05 1.90735e-06 -80.8589 45.2231 20.2444 26.1234 -1.90735e-06 -3.8147e-06 -1.11361e-05 -5.79499e-05 -19.1966 27.7188 -3.8147e-06 5.72205e-06 5.05215 -47.0006 2.92955 2.29793 -0.468456 1.83133 57.0385 56.9802 -81.4265 5.29526 0 -1.90735e-06 -43.646 1.15067 3.68571 3.01811 9.53674e-07 1.90735e-06 15.8048 -0.000135003 -1.45142e-05 9.37931 0.299057 2.59235 -16.6081 -2.56651 5.88513 4.34608 -2.86102e-06 -9.53675e-07 -8.78807 0.0449685 1.58263 2.1666 4.44089e-16 -1.77636e-15 -10.243 -1.92099e-05 1.45142e-05 9.47694 0.837639 0.294667 -18.9539 -6.16544 5.18962 4.77204 -9.53674e-07 9.53674e-07 -14.584 -0.199078 1.27917 2.87217 -1.33514e-05 -9.53675e-07 -7.13271 -0.00707331 0.405588 8.65864 1.01763 -1.70161 -19.8127 -0.611037 5.38327 4.5461 -7.62939e-06 0 -12.9147 4.16215e-06 -8.75118e-06 2.50603 1.90735e-06 -1.90735e-06 -3.24199 6.4033e-07 -1.85696e-05 7.69005 0.661793 -3.9096 -15.9002 -10.3652 3.02219 3.21192 5.72205e-06 -4.76837e-07 -11.6413 -9.97848e-06 -2.44393e-05 1.92397 -3.8147e-06 -4.76837e-07 -6.44296 -1.302e-05 -2.00637e-05 -4.06771 26.6109 -1.12341 5.65839 -3.88084 7.10393 -14.1772 -2.84217e-14 4.76837e-07 75.873 31.5828 -0.568666 -26.1234 0 -7.6294e-06 6.94919e-06 -3.01489e-06 2.16756 -27.7188 7.10543e-15 -9.53674e-07 -3.33502 -18.1033 23.387 -2.29793 -0.468453 1.83133 -141.793 4.65187 171.782 -5.29526 1.90735e-06 -3.8147e-06 24.8012 0.3579 22.0005 -3.01812 -1.90735e-06 -1.90735e-06 -10.6476 -0.0290313 -0.338354 -9.37931 0.299057 2.59235 7.40583 -3.36314 -19.2863 -4.34608 -5.72205e-06 -9.53674e-07 8.29743 0.189833 -1.0934 -2.16662 1.90735e-06 -1.90735e-06 10.4526 -0.0976961 -0.992635 -9.47695 0.837639 0.294662 32.858 -1.32941 -13.9285 -4.77205 -1.90735e-06 3.8147e-06 31.2398 -0.922723 -2.11915 -2.87217 -1.14441e-05 -9.53674e-07 7.21092 0.0569023 -2.14417 -8.65864 1.01763 -1.70162 22.5661 -10.5823 -17.1006 -4.54611 0 -9.53675e-07 56.0825 -0.622425 -0.480823 -2.50603 1.42109e-14 -1.90735e-06 9.0225 -0.00811085 -1.26287 -7.69006 0.661793 -3.90961 17.2819 -25.9381 -8.78884 -3.21191 3.8147e-06 1.90735e-06 60.3825 -3.86866 -3.21235 -1.92397 -7.6294e-06 -1.90735e-06 60.7019 -3.80558 -3.14542 8.73786 -0.0029068 0.000545025 10.4177 1.44511 37.2626 -5.72205e-06 -46.6676 -1.90735e-06 -1.32114e-05 12.9015 3.04918e-05 5.72205e-06 -40.1476 -2.00272e-05 -10.9248 -8.44067 -1.71631 3.8147e-06 -8.8846 14.2294 5.37878e-05 3.43644e-05 -2.592e-05 -8.73786 0.00291443 -0.000536442 -8.16883 -11.4048 -34.2467 -2.86102e-06 -46.6676 7.6294e-06 6.47051e-06 22.2209 9.51089e-07 -5.24521e-06 -40.1476 -1.14441e-05 7.92047 -1.3223 -1.32717 8.10623e-06 -8.88459 14.2294 -0.000127212 -5.12264e-06 5.82701e-05 
1.07303 95.688 0.46816 -2.65531 -2.37983 -9.97791 -0.823662 7.19322 -0.000148773 3.8503 -0.196712 -0.604563 0.000636578 16.5492 -0.000202179 0.334578 4.76957 -1.57156 1.04904e-05 34.2153 0.000236988 -0.72591 36.9799 0.0963818 9.53675e-07 6.29236 -1.42109e-14 0.299391 -33.9618 -0.821102 4.06393 26.6115 -1.12344 -7.68197 -3.98675 -4.58228 14.1772 0 -4.76837e-07 -81.0026 45.504 20.699 26.1234 -7.62939e-06 -1.42109e-14 -3.28049e-05 -7.1717e-05 -20.2343 27.7188 0 1.14441e-05 5.78421 -47.1598 3.51365 2.29794 -0.468453 1.83133 57.051 56.9809 -81.4335 5.29526 3.8147e-06 5.72205e-06 -43.6462 1.15747 3.68909 3.01812 1.90735e-06 -5.72205e-06 15.8051 0.00664844 0.00336387 9.37932 0.299065 2.59235 -16.6085 -2.55973 5.88849 4.34608 1.77636e-15 -4.76837e-07 -8.78797 0.0517556 1.58602 2.1666 -1.90735e-06 0 -10.2427 0.006789 0.0034057 9.47694 0.837643 0.29467 -18.9542 -6.15865 5.19296 4.77205 -9.53674e-07 0 -14.5839 -0.192291 1.28257 2.87218 -5.72205e-06 9.53674e-07 -7.13246 -0.000278757 0.40897 8.65865 1.01764 -1.70161 -19.813 -0.604237 5.38662 4.5461 -3.8147e-06 -9.53674e-07 -12.9144 0.00678558 0.00340421 2.50604 -5.32907e-15 1.77636e-15 -3.24171 0.00678537 0.00336259 7.69006 0.661797 -3.9096 -15.9002 -10.3584 3.02555 3.21193 9.53675e-06 4.76837e-07 -11.641 0.00678115 0.00337187 1.92397 -1.90735e-06 0 -6.44268 0.00677816 0.00336899 -4.06772 26.6109 -1.12342 5.65839 -3.88085 7.10393 -14.1772 1.52588e-05 9.53675e-07 75.7138 31.7318 -0.464189 -26.1234 7.10543e-15 1.77636e-15 1.94938e-05 4.14881e-06 2.16757 -27.7188 0 9.53675e-07 -3.33502 -18.1033 23.387 -2.29793 -0.468453 1.83132 -141.793 4.65189 171.782 -5.29526 5.72205e-06 -7.6294e-06 24.8012 0.357913 22.0005 -3.01812 -2.86102e-06 -1.90735e-06 -10.6477 -0.0290191 -0.33837 -9.37931 0.299053 2.59235 7.40583 -3.36315 -19.2863 -4.34609 -3.8147e-06 -2.86103e-06 8.29743 0.189853 -1.09341 -2.16662 3.8147e-06 0 10.4526 -0.0977034 -0.992641 -9.47694 0.837639 0.294663 32.858 -1.32942 -13.9284 -4.77206 1.90735e-06 3.8147e-06 31.2398 -0.922719 -2.11916 -2.87216 -1.14441e-05 -9.53675e-07 7.21091 0.0569185 -2.14417 -8.65864 1.01763 -1.70162 22.5661 -10.5823 -17.1006 -4.54611 -3.55272e-15 9.53675e-07 56.0824 -0.622427 -0.480811 -2.50603 7.6294e-06 -2.86103e-06 9.02251 -0.00810402 -1.26287 -7.69005 0.661793 -3.90961 17.2819 -25.9381 -8.78883 -3.21194 3.8147e-06 3.55272e-15 60.3825 -3.86867 -3.21234 -1.92397 0 -1.90735e-06 60.7019 -3.80558 -3.14543 8.73786 -0.00289917 0.000545025 10.1684 1.23628 37.0304 0 -46.6676 5.72205e-06 3.75084e-06 13.264 3.76088e-05 0 -40.1476 -1.43051e-06 -10.6905 -8.72494 -2.02038 2.86102e-06 -8.8846 14.2294 4.69576e-05 3.02022e-05 -2.76409e-05 -8.73786 0.00291443 -0.000536919 -8.27844 -12.0049 -34.5301 -9.53674e-07 -46.6676 -7.62939e-06 9.73195e-06 22.6015 3.97374e-06 -9.05991e-06 -40.1476 -9.53674e-07 7.90098 -1.14929 -1.40136 4.29153e-06 -8.8846 14.2294 -0.00012892 6.4033e-06 5.64558e-05 
1.07303 95.6081 0.46816 -2.5634 -2.39601 -9.97427 -0.811947 7.19454 -0.000143528 3.82497 -0.180934 -0.63023 0.000694036 16.5492 -0.000200748 0.377966 4.82989 -1.71129 2.95639e-05 34.2153 0.000220299 -0.891117 36.5722 0.00935038 -8.34465e-07 6.29236 0 0.405251 -33.4901 -0.385437 4.06394 26.6115 -1.12344 -7.55168 -4.02454 -4.36736 14.1772 0 -4.76837e-07 -81.1429 45.7637 21.1316 26.1234 -3.8147e-06 -7.6294e-06 -3.3557e-05 -5.33609e-05 -21.2339 27.7188 3.8147e-06 3.8147e-06 6.49264 -47.3081 4.07994 2.29793 -0.468456 1.83133 57.063 56.9817 -81.4403 5.29527 -3.8147e-06 -1.90735e-06 -43.6463 1.16407 3.69238 3.01811 -1.77636e-15 -1.90735e-06 15.8054 0.0132568 0.00667395 9.37931 0.299061 2.59235 -16.6089 -2.55311 5.89178 4.34609 9.53674e-07 9.53675e-07 -8.78786 0.0583577 1.58932 2.1666 5.72205e-06 0 -10.2425 0.013391 0.00668975 9.47695 0.837639 0.294667 -18.9545 -6.15203 5.19623 4.77205 -9.53674e-07 4.76837e-07 -14.5838 -0.185692 1.28586 2.87217 -1.14441e-05 -1.90735e-06 -7.13222 0.00633223 0.41227 8.65864 1.01763 -1.70161 -19.8133 -0.597627 5.38994 4.54611 -3.8147e-06 0 -12.9141 0.0133803 0.00668995 2.50603 3.8147e-06 -9.53675e-07 -3.24141 0.0134022 0.00666221 7.69006 0.661797 -3.90961 -15.9003 -10.3517 3.02885 3.21192 1.90735e-06 -8.88179e-16 -11.6407 0.0133714 0.00666915 1.92396 -5.72205e-06 -4.76837e-07 -6.44237 0.0133818 0.00665826 -4.06771 26.6109 -1.12342 5.54439 -3.91522 6.89023 -14.1772 -1.52588e-05 1.43051e-06 75.2142 31.7278 -0.174759 -26.1234 -7.62939e-06 3.8147e-06 2.79918e-05 4.61571e-06 2.6379 -27.7188 3.8147e-06 -2.86102e-06 -3.48894 -17.2124 22.5618 -2.29793 -0.468453 1.83133 -141.793 4.65187 171.782 -5.29527 -1.90735e-06 -3.8147e-06 24.8012 0.357915 22.0005 -3.01812 -9.53674e-07 -9.53674e-07 -10.6476 -0.0290185 -0.338345 -9.37931 0.299061 2.59235 7.40583 -3.36314 -19.2863 -4.34608 -5.72205e-06 1.77636e-15 8.29744 0.189838 -1.0934 -2.16661 9.53675e-06 1.77636e-15 10.4526 -0.0976968 -0.992631 -9.47694 0.837643 0.294666 32.858 -1.32942 -13.9284 -4.77204 -1.90735e-06 2.86102e-06 31.2398 -0.922733 -2.11917 -2.87217 -3.8147e-06 -2.86102e-06 7.21091 0.0569245 -2.14418 -8.65864 1.01764 -1.70161 22.5661 -10.5823 -17.1006 -4.54611 -3.8147e-06 0 56.0824 -0.622442 -0.480837 -2.50603 7.6294e-06 -9.53675e-07 9.02252 -0.00810146 -1.26286 -7.69005 0.661797 -3.90961 17.2818 -25.9381 -8.78884 -3.21192 -1.90735e-06 1.90735e-06 60.3825 -3.86864 -3.21235 -1.92397 -1.42109e-14 0 60.7019 -3.8056 -3.1454 8.73786 -0.0029068 0.000544548 9.91216 1.02171 36.7905 -3.8147e-06 -46.6676 -1.90735e-06 -5.89196e-06 13.6375 3.22315e-05 0 -40.1476 -1.00136e-05 -10.4489 -9.01723 -2.3308 2.86102e-06 -8.88459 14.2294 5.16533e-05 2.32653e-05 -1.49944e-05 -8.73786 0.00292206 -0.000535965 -8.39773 -12.616 -34.8176 -2.38419e-06 -46.6676 -3.8147e-06 5.12857e-06 22.9426 1.29379e-06 -1.00136e-05 -40.1476 -4.76837e-06 7.86752 -0.987907 -1.47947 5.00679e-06 -8.8846 14.2294 -0.00012892 1.00318e-05 4.7171e-05 
1.07303 95.526 0.46816 -2.4703 -2.41237 -9.97052 -0.800081 7.19588 -0.000139236 3.79944 -0.164799 -0.656553 0.000752211 16.5493 -0.000199318 0.422589 4.8916 -1.85456 4.19617e-05 34.2153 0.000197887 -1.06081 36.1533 -0.0811762 5.96046e-07 6.29235 7.6294e-06 0.512085 -33.0053 0.0609826 4.06394 26.6115 -1.12344 -7.42599 -4.06003 -4.16019 14.1772 2.84217e-14 -1.43051e-06 -81.2797 46.0035 21.5435 26.1234 -1.14441e-05 0 -3.79237e-05 -6.24322e-05 -22.1977 27.7188 -3.8147e-06 7.62939e-06 7.17853 -47.4463 4.6292 2.29793 -0.468456 1.83133 57.0748 56.9823 -81.4469 5.29525 3.8147e-06 5.72205e-06 -43.6464 1.17051 3.69559 3.01811 0 -1.90735e-06 15.8056 0.0196829 0.00988414 9.37931 0.299061 2.59235 -16.6092 -2.54671 5.89496 4.34609 -9.53674e-07 8.88179e-16 -8.78776 0.0648103 1.59252 2.16661 3.8147e-06 0 -10.2422 0.0197945 0.00989994 9.47693 0.837639 0.29467 -18.9548 -6.14562 5.19939 4.77205 -1.90735e-06 1.43051e-06 -14.5836 -0.179246 1.28906 2.87216 -1.52588e-05 -1.90735e-06 -7.13199 0.0127328 0.415476 8.65866 1.01764 -1.70161 -19.8137 -0.591212 5.39314 4.5461 -3.8147e-06 -9.53674e-07 -12.9139 0.0198139 0.00987261 2.50603 -1.77636e-15 -1.90735e-06 -3.24113 0.0198204 0.00987133 7.69005 0.661793 -3.9096 -15.9003 -10.3453 3.03203 3.21194 9.53674e-06 4.76837e-07 -11.6405 0.0198001 0.00985436 1.92397 -3.8147e-06 -1.43051e-06 -6.44208 0.0197841 0.00987587 -4.06771 26.6109 -1.12342 5.42682 -3.94976 6.67007 -14.1772 0 2.38419e-06 74.7011 31.7182 0.126986 -26.1235 0 -2.86102e-06 5.39079e-06 -4.7758e-06 3.12256 -27.7188 7.62939e-06 -1.90735e-06 -3.63256 -16.2939 21.7196 -2.29792 -0.468452 1.83133 -141.793 4.65189 171.782 -5.29528 -3.55271e-15 7.10543e-15 24.8012 0.357925 22.0005 -3.01812 -1.90735e-06 -9.53674e-07 -10.6476 -0.0290268 -0.338347 -9.37932 0.299053 2.59235 7.40582 -3.36315 -19.2863 -4.34609 -3.8147e-06 -1.90735e-06 8.29744 0.189851 -1.0934 -2.16662 5.72205e-06 -9.53674e-07 10.4526 -0.0976997 -0.992639 -9.47694 0.837631 0.294662 32.858 -1.32941 -13.9284 -4.77205 3.8147e-06 0 31.2398 -0.922737 -2.11916 -2.87216 -7.62939e-06 9.53674e-07 7.21092 0.0569322 -2.14417 -8.65865 1.01763 -1.70162 22.5661 -10.5823 -17.1006 -4.5461 -5.72205e-06 9.53674e-07 56.0825 -0.622438 -0.480823 -2.50604 7.62939e-06 -1.43051e-06 9.02251 -0.00811127 -1.26286 -7.69006 0.661789 -3.90961 17.2819 -25.938 -8.78883 -3.21192 -2.66453e-15 1.90735e-06 60.3825 -3.86865 -3.21235 -1.92397 -1.42108e-14 0 60.7019 -3.80558 -3.14542 8.73786 -0.0029068 0.000545025 9.6492 0.801825 36.5433 -5.72205e-06 -46.6676 -3.8147e-06 -1.38262e-05 14.0215 2.88748e-05 2.86102e-06 -40.1476 -4.76837e-06 -10.2005 -9.31695 -2.64676 4.76837e-06 -8.8846 14.2294 5.80566e-05 2.57199e-05 -1.77291e-05 -8.73786 0.00291443 -0.000536442 -8.52606 -13.2368 -35.1088 9.53674e-07 -46.6676 0 1.37918e-05 23.2496 2.0327e-06 -8.58307e-06 -40.1476 -3.8147e-06 7.8219 -0.836745 -1.56088 3.09944e-06 -8.88459 14.2294 -0.000134042 -2.13443e-06 5.55487e-05 
